<svg xmlns="http://www.w3.org/2000/svg" viewBox="0 0 520 320" role="img" aria-labelledby="title desc">
  <title id="title">Teclado gamer neon</title>
  <desc id="desc">Ilustracion SVG de un teclado gamer con luces neon.</desc>
  <defs>
    <linearGradient id="body" x1="0%" x2="100%" y1="0%" y2="100%">
      <stop offset="0%" stop-color="#141b33"/>
      <stop offset="100%" stop-color="#050816"/>
    </linearGradient>
    <linearGradient id="glow" x1="0%" x2="100%" y1="0%" y2="0%">
      <stop offset="0%" stop-color="#8a5cff"/>
      <stop offset="50%" stop-color="#26a9ff"/>
      <stop offset="100%" stop-color="#14f1d9"/>
    </linearGradient>
  </defs>
  <ellipse cx="260" cy="250" rx="190" ry="34" fill="#14f1d9" opacity="0.12"/>
  <rect x="72" y="86" width="376" height="158" rx="28" fill="url(#body)" stroke="url(#glow)" stroke-width="6"/>
  <rect x="104" y="118" width="50" height="36" rx="8" fill="#202a4a" stroke="#8a5cff"/>
  <rect x="168" y="118" width="50" height="36" rx="8" fill="#202a4a" stroke="#26a9ff"/>
  <rect x="232" y="118" width="50" height="36" rx="8" fill="#202a4a" stroke="#14f1d9"/>
  <rect x="296" y="118" width="50" height="36" rx="8" fill="#202a4a" stroke="#8a5cff"/>
  <rect x="360" y="118" width="50" height="36" rx="8" fill="#202a4a" stroke="#26a9ff"/>
  <rect x="104" y="170" width="50" height="36" rx="8" fill="#202a4a" stroke="#14f1d9"/>
  <rect x="168" y="170" width="178" height="36" rx="8" fill="#202a4a" stroke="#8a5cff"/>
  <rect x="360" y="170" width="50" height="36" rx="8" fill="#202a4a" stroke="#14f1d9"/>
  <path d="M94 70h92M334 70h92" stroke="#14f1d9" stroke-width="8" stroke-linecap="round" opacity="0.8"/>
</svg>
